<mxfile host="app.diagrams.net" modified="2023-10-30T13:09:39.711Z" agent="Mozilla/5.0 (Windows NT 10.0; Win64; x64) AppleWebKit/537.36 (KHTML, like Gecko) Chrome/116.0.0.0 Safari/537.36 OPR/102.0.0.0" version="21.7.5" etag="173RcwgmuMFA8RzwsLa4" type="github">
  <diagram name="Trang-1" id="zxN369cOIYF5vNV0-1vk">
    <mxGraphModel>
      <root>
        <mxCell id="0" />
        <mxCell id="1" parent="0" />
      </root>
    </mxGraphModel>
  </diagram>
</mxfile>
